<mxfile host="app.diagrams.net" modified="2023-05-14T07:56:51.793Z" agent="Mozilla/5.0 (Windows NT 10.0; Win64; x64) AppleWebKit/537.36 (KHTML, like Gecko) Chrome/113.0.0.0 Safari/537.36" version="21.2.9" etag="p2R9D9ged7_1YxDCDrQ3" type="github">
  <diagram name="Page-1" id="83Nwqfm57sAP1iwrYhef">
    <mxGraphModel>
      <root>
        <mxCell id="0" />
        <mxCell id="1" parent="0" />
      </root>
    </mxGraphModel>
  </diagram>
</mxfile>
